<?xml version="1.0" encoding="UTF-8" standalone="no"?>
<!-- Created with Inkscape (http://www.inkscape.org/) -->

<svg
   width="47.667999mm"
   height="18.249647mm"
   viewBox="0 0 47.667999 18.249647"
   version="1.1"
   id="svg601"
   inkscape:version="1.2.1 (9c6d41e, 2022-07-14)"
   sodipodi:docname="logo_white.svg"
   inkscape:export-filename="logo_big2.pdf"
   inkscape:export-xdpi="2400"
   inkscape:export-ydpi="2400"
   xmlns:inkscape="http://www.inkscape.org/namespaces/inkscape"
   xmlns:sodipodi="http://sodipodi.sourceforge.net/DTD/sodipodi-0.dtd"
   xmlns="http://www.w3.org/2000/svg"
   xmlns:svg="http://www.w3.org/2000/svg">
  <sodipodi:namedview
     id="namedview603"
     pagecolor="#ffffff"
     bordercolor="#111111"
     borderopacity="1"
     inkscape:showpageshadow="0"
     inkscape:pageopacity="0"
     inkscape:pagecheckerboard="1"
     inkscape:deskcolor="#d1d1d1"
     inkscape:document-units="mm"
     showgrid="false"
     inkscape:zoom="2.160639"
     inkscape:cx="14.116194"
     inkscape:cy="46.282604"
     inkscape:window-width="1440"
     inkscape:window-height="712"
     inkscape:window-x="0"
     inkscape:window-y="25"
     inkscape:window-maximized="0"
     inkscape:current-layer="layer1" />
  <defs
     id="defs598" />
  <g
     inkscape:label="Layer 1"
     inkscape:groupmode="layer"
     id="layer1"
     transform="translate(-0.03151161,-0.26884846)">
    <path
       id="text378"
       style="font-size:8.46667px;font-family:'Varela Round';-inkscape-font-specification:'Varela Round';text-align:center;text-anchor:middle;fill:#ffffff;stroke:#000000;stroke-width:0;stroke-linecap:round;stroke-linejoin:round;stroke-miterlimit:3.7;paint-order:stroke fill markers;fill-opacity:1"
       d="m 14.203257,0.26947884 c -1.540371,0 -2.816379,0.52171699 -3.82819,1.56372896 V 0.49633784 H 9.3782276 V 8.4338358 c -0.5061987,-0.45503 -1.0840157,-0.81619 -1.7352937,-1.08262 -0.664472,-0.28693 -1.351592,-0.4315 -2.061372,-0.4315 -1.02691,0 -1.96396,0.25705 -2.8096498,0.7705 -0.84569,0.51345 -1.51754,1.20873 -2.0159,2.08463 -0.48325,0.8758902 -0.72449999,1.8577202 -0.72449999,2.9450402 0,1.08732 0.24123999,2.06759 0.72449999,2.94348 0.49836,0.8759 1.17021,1.57169 2.0159,2.08515 0.8456898,0.51346 1.7827398,0.76998 2.8096498,0.76998 1.54037,0 2.81638,-0.52172 3.8281887,-1.56373 v 1.33687 h 0.9968384 v -7.9375 c 0.520528,0.4555 1.098638,0.82508 1.735295,1.10639 0.664469,0.27183 1.351591,0.40773 2.061373,0.40773 1.042016,0 1.979057,-0.25653 2.809647,-0.76998 0.845691,-0.51346 1.510432,-1.2092502 1.993677,-2.0851402 0.498357,-0.891 0.746208,-1.87283 0.746208,-2.945045 0,-1.087317 -0.247861,-2.069142 -0.746208,-2.945039 -0.483245,-0.875895 -1.147986,-1.570138 -1.993677,-2.083594 -0.83059,-0.52855696 -1.767631,-0.78508296 -2.809647,-0.76997896 z m 0,0.95136296 c 0.845691,0 1.608663,0.218848 2.288232,0.656807 0.69468,0.422845 1.238786,1.004617 1.631425,1.744597 0.40775,0.724878 0.611332,1.539748 0.611332,2.445845 0,0.906105 -0.203582,1.729635 -0.611332,2.469615 -0.392639,0.72488 -0.936745,1.30665 -1.631425,1.7446002 -0.679569,0.42284 -1.442541,0.63459 -2.288232,0.63459 -0.800388,0 -1.539414,-0.17357 -2.218986,-0.5209 -0.662894,-0.35354 -1.18781,-0.7880602 -1.577682,-1.2996702 v -6.057507 c 0.375062,-0.539027 0.884558,-0.972739 1.532206,-1.296562 0.679575,-0.347338 1.433871,-0.521415 2.264462,-0.521415 z m 12.008056,3.653007 -0.37259,0.118856 v 1.049548 h -0.91467 v 0.339003 h 0.91467 v 3.01376 c 0,0.28223 0.0844,0.50239 0.25373,0.6604302 0.16933,0.15804 0.41203,0.23719 0.72812,0.23719 0.11853,0 0.23438,-0.008 0.34727,-0.0253 0.11289,-0.0169 0.22297,-0.0452 0.33021,-0.0847 V 9.8188358 c -0.096,0.0395 -0.18926,0.0704 -0.27957,0.093 -0.0903,0.0169 -0.20039,0.0253 -0.33021,0.0253 -0.24271,0 -0.41727,-0.0508 -0.52452,-0.15244 -0.1016,-0.10725 -0.15244,-0.27918 -0.15244,-0.51625 v -2.88716 h 1.28674 v -0.339001 h -1.28674 z m 2.98844,0 -0.37258,0.118856 v 1.049548 h -0.91416 v 0.339003 h 0.91416 v 3.01376 c 0,0.28223 0.0849,0.50239 0.25425,0.6604302 0.16933,0.15804 0.41203,0.23719 0.72812,0.23719 0.11853,0 0.23437,-0.008 0.34726,-0.0253 0.11289,-0.0169 0.22297,-0.0452 0.33021,-0.0847 V 9.8188358 c -0.096,0.0395 -0.18925,0.0704 -0.27957,0.093 -0.0903,0.0169 -0.20039,0.0253 -0.33021,0.0253 -0.24271,0 -0.41779,-0.0508 -0.52503,-0.15244 -0.1016,-0.10725 -0.15245,-0.27918 -0.15245,-0.51625 v -2.88716 h 1.28726 v -0.339001 h -1.28726 z m 8.05171,1.075387 c -0.25965,0 -0.49344,0.06762 -0.70228,0.203088 -0.2032,0.129822 -0.36413,0.310662 -0.48266,0.542082 v -0.660421 h -0.37259 v 4.1656412 h 0.37259 V 7.2783558 c 0.11289,-0.31609 0.26805,-0.55565 0.4656,-0.71934 0.2032,-0.16933 0.44276,-0.254247 0.71934,-0.254247 0.0564,0 0.11619,0.0058 0.17828,0.01705 0.0621,0.006 0.12395,0.0198 0.18604,0.0424 v -0.380846 c -0.12982,-0.02258 -0.25143,-0.03411 -0.36432,-0.03411 z m -14.63012,0.0083 c -0.38382,0 -0.73397,0.09593 -1.05006,0.287838 -0.316089,0.191912 -0.567176,0.451902 -0.753443,0.779282 -0.180622,0.32738 -0.270785,0.69431 -0.270785,1.10071 0,0.40075 0.09016,0.76768 0.270785,1.1007 0.186267,0.32738 0.437354,0.58686 0.753443,0.7787702 0.31609,0.19191 0.66624,0.28784 1.05006,0.28784 0.38947,0 0.73963,-0.0959 1.05007,-0.28784 0.31609,-0.1919102 0.56403,-0.4513902 0.74466,-0.7787702 0.18626,-0.33302 0.27957,-0.69995 0.27957,-1.1007 0,-0.4064 -0.0933,-0.77333 -0.27957,-1.10071 -0.18063,-0.32738 -0.42857,-0.58737 -0.74466,-0.779282 -0.31044,-0.191911 -0.6606,-0.287838 -1.05007,-0.287838 z m 10.26139,0 c -0.38382,0 -0.73083,0.09593 -1.04128,0.287838 -0.31044,0.191912 -0.55576,0.451902 -0.73639,0.779282 -0.17497,0.32738 -0.26251,0.69431 -0.26251,1.10071 0,0.4064 0.0902,0.77333 0.27078,1.1007 0.18627,0.32738 0.43736,0.58686 0.75344,0.7787702 0.31609,0.19191 0.66625,0.28784 1.05007,0.28784 0.27658,0 0.54182,-0.0393 0.79582,-0.11834 0.254,-0.079 0.49407,-0.2006302 0.71985,-0.3643202 l -0.22014,-0.29611 c -0.16369,0.12982 -0.36131,0.23414 -0.59273,0.31316 -0.23142,0.0734 -0.46573,0.11007 -0.7028,0.11007 -0.3048,0 -0.58419,-0.076 -0.83819,-0.22841 -0.24836,-0.1524 -0.4486,-0.35578 -0.601,-0.60978 -0.1524,-0.25964 -0.23731,-0.55057 -0.25425,-0.8723 h 3.54759 v -0.15244 c 0,-0.38947 -0.0849,-0.74225 -0.25425,-1.05834 -0.16369,-0.32173 -0.38647,-0.57858 -0.66869,-0.770492 -0.28222,-0.191911 -0.60407,-0.287838 -0.96532,-0.287838 z m 5.10564,0.08475 1.73581,4.1485802 -0.339,0.76223 c -0.2032,0.45156 -0.48259,0.67748 -0.83819,0.67748 -0.12982,0 -0.2399,-0.0115 -0.33022,-0.0341 v 0.37259 c 0.0452,0.006 0.0986,0.0114 0.16072,0.017 0.0621,0.0113 0.12446,0.017 0.18655,0.017 0.18062,0 0.33841,-0.0341 0.47387,-0.10181 0.14111,-0.0677 0.26849,-0.17781 0.38138,-0.33021 0.11853,-0.14675 0.23123,-0.34175 0.33848,-0.58446 L 41.92508,6.0421858 h -0.41445 l -1.583367,3.70003 -1.51566,-3.70003 z m -15.36703,0.271301 c 0.31609,0 0.60125,0.08178 0.85525,0.245459 0.25964,0.15805 0.46251,0.37507 0.60926,0.65164 0.1524,0.27094 0.22893,0.57601 0.22893,0.91468 0,0.33866 -0.0765,0.64636 -0.22893,0.92294 -0.14675,0.27093 -0.34962,0.48795 -0.60926,0.65164 -0.254,0.15804 -0.53916,0.23719 -0.85525,0.23719 -0.31608,0 -0.60386,-0.0792 -0.86351,-0.23719 -0.254,-0.16369 -0.457381,-0.38071 -0.609781,-0.65164 -0.146755,-0.27658 -0.220141,-0.58428 -0.220141,-0.92294 0,-0.33867 0.07339,-0.64374 0.220141,-0.91468 0.1524,-0.27657 0.355781,-0.49359 0.609781,-0.65164 0.25965,-0.16368 0.54743,-0.245459 0.86351,-0.245459 z m 10.25313,0 c 0.27093,0 0.51363,0.07025 0.72812,0.211359 0.21449,0.14111 0.38956,0.33034 0.52503,0.56741 0.13547,0.23142 0.21724,0.49089 0.24546,0.77876 h -3.13262 c 0.0339,-0.29916 0.12403,-0.5644 0.27078,-0.79582 0.1524,-0.23706 0.34425,-0.42315 0.57568,-0.55862 0.23706,-0.13547 0.49968,-0.203089 0.78755,-0.203089 z M 5.5815619,7.8711158 c 0.80038,0 1.54044,0.18223 2.220018,0.54467 0.662827,0.33878 1.186785,0.76523 1.5766477,1.27641 v 6.0585402 c -0.3753917,0.53903 -0.8923877,0.97886 -1.5544267,1.31723 -0.664469,0.33224 -1.411649,0.4992 -2.242239,0.4992 -0.84569,0 -1.61578,-0.21174 -2.3104598,-0.63459 -0.67957,-0.43794 -1.22368,-1.01972 -1.63142,-1.74459 -0.39264,-0.73999 -0.58911,-1.56197 -0.58911,-2.46807 0,-0.9061 0.19648,-1.72252 0.58911,-2.4474 0.40774,-0.7399802 0.95185,-1.3202002 1.63142,-1.7430402 0.6946798,-0.43795 1.4647698,-0.65836 2.3104598,-0.65836 z m 30.4854811,3.9785702 -0.37259,0.093 v 5.92677 h 0.37259 v -3.13263 c 0.12982,-0.24835 0.30752,-0.43758 0.5333,-0.5674 0.22577,-0.13547 0.48,-0.20309 0.76222,-0.20309 0.4064,0 0.72511,0.12109 0.95653,0.3638 0.23143,0.23707 0.34727,0.56468 0.34727,0.98237 v 2.55695 h 0.37259 v -2.65875 c 0,-0.31609 -0.0681,-0.59286 -0.20361,-0.82993 -0.12982,-0.24271 -0.31591,-0.4288 -0.55862,-0.55862 -0.23707,-0.13547 -0.51384,-0.20309 -0.82992,-0.20309 -0.58138,0 -1.0411,0.22278 -1.37976,0.6687 z m -13.58057,0.27078 c -0.0903,0 -0.16632,0.0309 -0.22841,0.093 -0.0621,0.0621 -0.0935,0.1381 -0.0935,0.22841 0,0.0903 0.0314,0.16684 0.0935,0.22893 0.0621,0.0621 0.1381,0.093 0.22841,0.093 0.0959,0 0.17196,-0.0309 0.22841,-0.093 0.0621,-0.0621 0.0935,-0.13862 0.0935,-0.22893 0,-0.0903 -0.0314,-0.16632 -0.0935,-0.22841 -0.0564,-0.0621 -0.13246,-0.093 -0.22841,-0.093 z m 2.19263,0.41496 -0.37259,0.11834 v 1.05007 h -0.91415 v 0.33848 h 0.91415 v 3.01429 c 0,0.28222 0.0849,0.50238 0.25425,0.66042 0.16933,0.15804 0.41203,0.23668 0.72812,0.23668 0.11854,0 0.23438,-0.008 0.34727,-0.0253 0.11289,-0.0169 0.22297,-0.0452 0.33021,-0.0847 v -0.3638 c -0.096,0.0395 -0.18926,0.0704 -0.27957,0.093 -0.0903,0.0169 -0.20039,0.0253 -0.33021,0.0253 -0.24271,0 -0.41779,-0.0509 -0.52503,-0.15245 -0.1016,-0.10724 -0.15245,-0.27918 -0.15245,-0.51625 v -2.88716 h 1.28726 v -0.33848 h -1.28726 z m -6.197555,1.07487 c -0.259644,0 -0.493955,0.0681 -0.702799,0.20361 -0.2032,0.12982 -0.363608,0.31015 -0.482141,0.54157 v -0.66043 h -0.372587 v 4.16564 h 0.372587 v -2.92075 c 0.112889,-0.31609 0.268049,-0.55617 0.465605,-0.71985 0.203199,-0.16934 0.442758,-0.25374 0.719335,-0.25374 0.05644,0 0.115679,0.005 0.177767,0.0165 0.06209,0.006 0.124463,0.0198 0.186552,0.0424 v -0.38085 c -0.129822,-0.0226 -0.25143,-0.0341 -0.364319,-0.0341 z m 2.692343,0 c -0.259645,0 -0.493439,0.0681 -0.702283,0.20361 -0.2032,0.12982 -0.364125,0.31015 -0.482658,0.54157 v -0.66046 h -0.372587 v 4.16564 h 0.372587 v -2.92075 c 0.112889,-0.31609 0.268049,-0.55617 0.465605,-0.71986 0.2032,-0.16933 0.442758,-0.25373 0.719336,-0.25373 0.05644,0 0.116194,0.005 0.178283,0.0165 0.06209,0.006 0.123947,0.0198 0.186039,0.0424 v -0.38085 c -0.129826,-0.0226 -0.251434,-0.0341 -0.364322,-0.0341 z m -7.289478,0.009 c -0.383822,0 -0.733976,0.0959 -1.050065,0.28784 -0.316089,0.19191 -0.567176,0.45139 -0.753442,0.77877 -0.180623,0.32737 -0.270785,0.6943 -0.270785,1.1007 0,0.40076 0.09016,0.76769 0.270785,1.10071 0.186266,0.32738 0.437353,0.58685 0.753442,0.77876 0.316089,0.19192 0.666243,0.28784 1.050065,0.28784 0.389466,0 0.739104,-0.0959 1.049548,-0.28784 0.316089,-0.19191 0.564552,-0.45138 0.745175,-0.77876 0.186266,-0.33302 0.279569,-0.69995 0.279569,-1.10071 0,-0.4064 -0.0933,-0.77333 -0.279569,-1.1007 -0.180623,-0.32738 -0.429086,-0.58686 -0.745175,-0.77877 -0.310444,-0.19191 -0.660082,-0.28784 -1.049548,-0.28784 z m 14.51178,0 c -0.38383,0 -0.73398,0.0959 -1.05007,0.28784 -0.31609,0.19191 -0.56718,0.45139 -0.75344,0.77877 -0.18062,0.32737 -0.27079,0.6943 -0.27079,1.1007 0,0.40076 0.0902,0.76769 0.27079,1.10071 0.18626,0.32738 0.43735,0.58685 0.75344,0.77876 0.31609,0.19192 0.66624,0.28784 1.05007,0.28784 0.38946,0 0.73962,-0.0959 1.05006,-0.28784 0.31609,-0.19191 0.56404,-0.45138 0.74466,-0.77876 0.18626,-0.33302 0.27957,-0.69995 0.27957,-1.10071 0,-0.4064 -0.0933,-0.77333 -0.27957,-1.1007 -0.18062,-0.32738 -0.42857,-0.58686 -0.74466,-0.77877 -0.31044,-0.19191 -0.6606,-0.28784 -1.05006,-0.28784 z m 4.91081,0 c -0.38382,0 -0.73398,0.0959 -1.05007,0.28784 -0.31609,0.19191 -0.56717,0.45139 -0.75344,0.77877 -0.18062,0.32737 -0.27078,0.6943 -0.27078,1.1007 0,0.4064 0.0902,0.77333 0.27078,1.10071 0.18627,0.32738 0.43735,0.58685 0.75344,0.77876 0.31609,0.19192 0.66625,0.28784 1.05007,0.28784 0.28222,0 0.56424,-0.0561 0.84646,-0.16898 0.28786,-0.11289 0.53895,-0.26805 0.75344,-0.4656 l -0.25373,-0.3049 c -0.18062,0.17498 -0.38977,0.31599 -0.62684,0.42324 -0.23142,0.10724 -0.47098,0.16071 -0.71933,0.16071 -0.31609,0 -0.60439,-0.0786 -0.86403,-0.23668 -0.254,-0.16369 -0.45687,-0.38122 -0.60927,-0.65216 -0.14675,-0.27657 -0.22014,-0.58427 -0.22014,-0.92294 0,-0.33866 0.0734,-0.64322 0.22014,-0.91415 0.1524,-0.27658 0.35527,-0.49412 0.60927,-0.65216 0.25964,-0.16369 0.54794,-0.24546 0.86403,-0.24546 0.24835,0 0.48791,0.0535 0.71933,0.16071 0.23707,0.1016 0.44622,0.24261 0.62684,0.42323 l 0.25373,-0.30437 c -0.21449,-0.19756 -0.46558,-0.35272 -0.75344,-0.46561 -0.28222,-0.11289 -0.56424,-0.1695 -0.84646,-0.1695 z m 8.339537,0 c -0.24271,0 -0.48541,0.0336 -0.72812,0.10129 -0.24271,0.0621 -0.49694,0.16116 -0.762227,0.29662 l 0.16123,0.33022 c 0.270937,-0.14112 0.510487,-0.24281 0.719337,-0.3049 0.20884,-0.0621 0.4096,-0.093 0.60151,-0.093 0.38947,0 0.68826,0.0959 0.8971,0.28784 0.20885,0.18627 0.31316,0.47142 0.31316,0.85525 v 0.69401 c -0.38382,-0.24271 -0.82362,-0.3638 -1.32033,-0.3638 -0.49671,0 -0.89509,0.11847 -1.194237,0.35553 -0.29916,0.23142 -0.44855,0.53912 -0.44855,0.92294 0,0.24836 0.065,0.46852 0.19482,0.66043 0.12982,0.18626 0.310137,0.33304 0.541567,0.44028 0.23142,0.1016 0.4998,0.15193 0.8046,0.15193 0.28222,0 0.5417,-0.0477 0.77876,-0.14366 0.23707,-0.096 0.45146,-0.2312 0.64337,-0.40618 v 0.46561 h 0.37259 v -2.84479 c 0,-0.4572 -0.13838,-0.80473 -0.41496,-1.0418 -0.27093,-0.24271 -0.65726,-0.3638 -1.15962,-0.3638 z m 4.46174,0 c -0.58137,0 -1.04109,0.22279 -1.37976,0.6687 v -0.58395 h -0.37258 v 4.16564 h 0.37258 v -3.13263 c 0.12982,-0.24835 0.30753,-0.43758 0.5333,-0.5674 0.22578,-0.13547 0.47949,-0.20309 0.76171,-0.20309 0.4064,0 0.72563,0.12109 0.95705,0.3638 0.23142,0.23707 0.34727,0.56468 0.34727,0.98237 v 2.55695 h 0.37207 v -2.65875 c 0,-0.31609 -0.0676,-0.59286 -0.20309,-0.82993 -0.12982,-0.24271 -0.31591,-0.4288 -0.55862,-0.55862 -0.23707,-0.13546 -0.51384,-0.20309 -0.82993,-0.20309 z m -23.808357,0.0847 v 4.16564 h 0.37258 v -4.16564 z m -8.41551,0.27079 c 0.316089,0 0.601245,0.0818 0.855245,0.24546 0.259644,0.15805 0.46251,0.37558 0.609265,0.65216 0.1524,0.27093 0.228927,0.57549 0.228927,0.91415 0,0.33867 -0.07653,0.64637 -0.228927,0.92295 -0.146755,0.27093 -0.349621,0.48846 -0.609265,0.65215 -0.254,0.15805 -0.539156,0.23668 -0.855245,0.23668 -0.316089,0 -0.603869,-0.0786 -0.863513,-0.23668 -0.254,-0.16369 -0.457382,-0.38122 -0.609782,-0.65215 -0.146755,-0.27658 -0.220142,-0.58428 -0.220142,-0.92295 0,-0.33866 0.07339,-0.64322 0.220142,-0.91415 0.1524,-0.27658 0.355782,-0.49411 0.609782,-0.65216 0.259644,-0.16369 0.547424,-0.24546 0.863513,-0.24546 z m 14.51178,0 c 0.31608,0 0.60124,0.0818 0.85524,0.24546 0.25965,0.15805 0.46251,0.37558 0.60927,0.65216 0.1524,0.27093 0.22892,0.57549 0.22892,0.91415 0,0.33867 -0.0765,0.64637 -0.22892,0.92295 -0.14676,0.27093 -0.34962,0.48846 -0.60927,0.65215 -0.254,0.15805 -0.53916,0.23668 -0.85524,0.23668 -0.31609,0 -0.60387,-0.0786 -0.86352,-0.23668 -0.254,-0.16369 -0.45738,-0.38122 -0.60978,-0.65215 -0.14675,-0.27658 -0.22014,-0.58428 -0.22014,-0.92295 0,-0.33866 0.0734,-0.64322 0.22014,-0.91415 0.1524,-0.27658 0.35578,-0.49411 0.60978,-0.65216 0.25965,-0.16369 0.54743,-0.24546 0.86352,-0.24546 z m 13.089637,1.7694 c 0.28222,0 0.53331,0.0341 0.75344,0.1018 0.22013,0.0677 0.423,0.17205 0.60926,0.31316 v 0.86351 c -0.18062,0.19191 -0.38348,0.34183 -0.60926,0.44907 -0.22578,0.1016 -0.48839,0.15245 -0.78755,0.15245 -0.34431,0 -0.62947,-0.0875 -0.85525,-0.26252 -0.22577,-0.17498 -0.338477,-0.39828 -0.338477,-0.66921 0,-0.28222 0.112707,-0.51077 0.338477,-0.68574 0.22578,-0.17498 0.52247,-0.26252 0.88936,-0.26252 z" />
  </g>
</svg>
