<?xml version="1.0" encoding="UTF-8" standalone="no"?>
<!-- Created with Inkscape (http://www.inkscape.org/) -->

<svg
   width="19.99mm"
   height="18.577999mm"
   viewBox="0 0 19.99 18.577999"
   version="1.1"
   id="svg601"
   inkscape:version="1.2.1 (9c6d41e, 2022-07-14)"
   sodipodi:docname="logo_simple.svg"
   inkscape:export-filename="logo_big2.pdf"
   inkscape:export-xdpi="2400"
   inkscape:export-ydpi="2400"
   xmlns:inkscape="http://www.inkscape.org/namespaces/inkscape"
   xmlns:sodipodi="http://sodipodi.sourceforge.net/DTD/sodipodi-0.dtd"
   xmlns="http://www.w3.org/2000/svg"
   xmlns:svg="http://www.w3.org/2000/svg">
  <sodipodi:namedview
     id="namedview603"
     pagecolor="#ffffff"
     bordercolor="#111111"
     borderopacity="1"
     inkscape:showpageshadow="0"
     inkscape:pageopacity="0"
     inkscape:pagecheckerboard="1"
     inkscape:deskcolor="#d1d1d1"
     inkscape:document-units="mm"
     showgrid="false"
     inkscape:zoom="2.160639"
     inkscape:cx="-12.727716"
     inkscape:cy="62.01869"
     inkscape:window-width="1440"
     inkscape:window-height="712"
     inkscape:window-x="0"
     inkscape:window-y="25"
     inkscape:window-maximized="0"
     inkscape:current-layer="layer1" />
  <defs
     id="defs598" />
  <g
     inkscape:label="Layer 1"
     inkscape:groupmode="layer"
     id="layer1"
     transform="translate(5.049846,25.915953)">
    <path
       id="text378"
       style="font-size:8.46667px;font-family:'Varela Round';-inkscape-font-specification:'Varela Round';text-align:center;text-anchor:middle;fill:#000000;stroke:#000000;stroke-width:0;stroke-linecap:round;stroke-linejoin:round;stroke-miterlimit:3.7;paint-order:stroke fill markers"
       d="m 9.3050142,-25.691205 c -1.540371,0 -2.816379,0.521717 -3.82819,1.563729 v -1.33687 h -0.996839 v 7.937499 c -0.506199,-0.45503 -1.084016,-0.81619 -1.735294,-1.08262 -0.664472,-0.28693 -1.351592,-0.4315 -2.06137196,-0.4315 -1.0269098,0 -1.96395984,0.25705 -2.80964984,0.7705 -0.84569,0.51345 -1.51754,1.20873 -2.0158998,2.08463 -0.48325,0.87589 -0.7245,1.85772 -0.7245,2.94504 0,1.08732 0.24124,2.06759 0.7245,2.943479 0.4983598,0.8759004 1.1702098,1.5716904 2.0158998,2.0851504 0.84569,0.51346 1.78274004,0.76998 2.80964984,0.76998 1.54036996,0 2.81637996,-0.52172 3.82818896,-1.56373 v 1.33687 h 0.996838 v -7.9374994 c 0.520528,0.4555 1.098638,0.82508 1.735295,1.10639 0.664469,0.27183 1.351591,0.40773 2.061373,0.40773 1.0420158,0 1.9790568,-0.25653 2.8096468,-0.76998 0.845691,-0.51346 1.510432,-1.20925 1.993677,-2.08514 0.498357,-0.891 0.746208,-1.87283 0.746208,-2.945046 0,-1.087317 -0.247861,-2.069142 -0.746208,-2.945039 -0.483245,-0.875895 -1.147986,-1.570138 -1.993677,-2.083594 -0.83059,-0.528557 -1.767631,-0.785083 -2.8096468,-0.769979 z m 0,0.951363 c 0.8456908,0 1.6086628,0.218848 2.2882318,0.656807 0.69468,0.422845 1.238786,1.004617 1.631425,1.744597 0.40775,0.724878 0.611332,1.539748 0.611332,2.445845 0,0.906106 -0.203582,1.729636 -0.611332,2.469616 -0.392639,0.72488 -0.936745,1.30665 -1.631425,1.7446 -0.679569,0.42284 -1.442541,0.63459 -2.2882318,0.63459 -0.800388,0 -1.539414,-0.17357 -2.218986,-0.5209 -0.662894,-0.35354 -1.18781,-0.78806 -1.577682,-1.29967 v -6.057508 c 0.375062,-0.539027 0.884558,-0.972739 1.532206,-1.296562 0.679575,-0.347338 1.433871,-0.521415 2.264462,-0.521415 z m 6.3437978,6.904525 c -53.455437,-67.8695 -26.727717,-33.93475 0,0 z m -14.96549276,-0.25425 c 0.80037996,0 1.54043996,0.18223 2.22001796,0.54467 0.662827,0.33878 1.186785,0.76523 1.576648,1.27641 v 6.058539 c -0.375392,0.5390304 -0.892388,0.9788604 -1.554427,1.3172304 -0.664469,0.33224 -1.411649,0.4992 -2.24223896,0.4992 -0.84569,0 -1.6157798,-0.21174 -2.31045984,-0.63459 -0.67957,-0.43794 -1.22368,-1.0197204 -1.63142,-1.7445894 -0.39264,-0.73999 -0.58911,-1.56197 -0.58911,-2.46807 0,-0.9061 0.19648,-1.72252 0.58911,-2.4474 0.40774,-0.73998 0.95185,-1.3202 1.63142,-1.74304 0.69468004,-0.43795 1.46476984,-0.65836 2.31045984,-0.65836 z"
       sodipodi:nodetypes="ccccccsscscsscccccsccscccsccsccsccccsccsccccsccsccs" />
  </g>
</svg>
